<?xml version="1.0" standalone="no"?>
<!DOCTYPE svg PUBLIC "-//W3C//DTD SVG 20010904//EN"
 "http://www.w3.org/TR/2001/REC-SVG-20010904/DTD/svg10.dtd">
<svg version="1.0" xmlns="http://www.w3.org/2000/svg"
 width="700.000000pt" height="700.000000pt" viewBox="0 0 700.000000 700.000000"
 preserveAspectRatio="xMidYMid meet">
<metadata>
Created by potrace 1.11, written by Peter Selinger 2001-2013
</metadata>
<g transform="translate(0.000000,700.000000) scale(0.100000,-0.100000)"
fill="#000000" stroke="none">
<path d="M0 3500 l0 -3500 3500 0 3500 0 0 3500 0 3500 -3500 0 -3500 0 0
-3500z m3949 972 c240 -525 440 -954 444 -955 4 -1 121 233 259 520 139 288
255 519 259 515 4 -4 105 -272 224 -597 120 -324 221 -594 225 -598 4 -4 224
128 489 294 265 165 485 298 488 295 4 -3 -5 -46 -19 -94 -20 -66 -343 -1190
-400 -1389 l-9 -33 -2414 0 -2414 0 -20 68 c-146 491 -400 1366 -397 1369 2 2
230 -111 508 -252 l505 -255 195 611 c107 335 198 611 202 612 3 1 122 -244
264 -545 141 -301 259 -548 262 -548 3 0 189 408 414 908 226 499 425 941 444
982 26 58 36 72 44 60 5 -8 206 -444 447 -968z m1961 -2597 l0 -335 -2400 0
-2400 0 0 335 0 335 2400 0 2400 0 0 -335z"/>
</g>
</svg>
